# xmcd
#
# Track frame offsets:
#	150
#	22065
#	36090
#	50267
#	65220
#	80840
#	96606
#	108865
#	123757
#	140551
#	156327
#	170440
#	188778
#	204022
#	224404
#
# Disc length: 3297 seconds
#
# Revision: 0
# Processed by: cddbd v1.5.2PL0 Copyright (c) Steve Scherf et al.
# Submitted via: audiograbber 1.83.01
#
DISCID=da0cdf0f
DTITLE=Jon Wolfe - It All Happened Live in a Honky Tonk from Floore's Country S
DTITLE=tore
DYEAR=2013
DGENRE=Country
TTITLE0=If She's Looking for Love
TTITLE1=Let a Country Boy Love You
TTITLE2=Sweet Liilte Song and Dance
TTITLE3=I'll Take My Cances
TTITLE4=You Might Have Told Me
TTITLE5=That's Not Very Texas Of You
TTITLE6=His New Baby
TTITLE7=Something To See
TTITLE8=Play Me Something
TTITLE9=Two Out Of Seven
TTITLE10=I Can't Take My Eyes Off You
TTITLE11=That Girl In Texas
TTITLE12=I Don't Dance
TTITLE13=The Only Time You Call
TTITLE14=It All Happened In A Honky Tonk
EXTD=
EXTT0=
EXTT1=
EXTT2=
EXTT3=
EXTT4=
EXTT5=
EXTT6=
EXTT7=
EXTT8=
EXTT9=
EXTT10=
EXTT11=
EXTT12=
EXTT13=
EXTT14=
PLAYORDER=
